<svg width="40" height="40" viewBox="0 0 40 40" fill="none" xmlns="http://www.w3.org/2000/svg">
<rect width="40" height="40" rx="20" fill="#F5F5F5"/>
<path d="M20.0003 11.6667C15.4003 11.6667 11.667 15.4001 11.667 20.0001C11.667 24.6001 15.4003 28.3334 20.0003 28.3334C24.6003 28.3334 28.3337 24.6001 28.3337 20.0001C28.3337 15.4001 24.6003 11.6667 20.0003 11.6667ZM21.1753 25.0751V26.6667H18.9503V25.0584C17.5253 24.7584 16.317 23.8417 16.2253 22.2251H17.8587C17.942 23.1001 18.542 23.7834 20.067 23.7834C21.7003 23.7834 22.067 22.9667 22.067 22.4584C22.067 21.7667 21.7003 21.1167 19.842 20.6751C17.7753 20.1751 16.3587 19.3251 16.3587 17.6167C16.3587 16.1834 17.517 15.2501 18.9503 14.9417V13.3334H21.1753V14.9584C22.7253 15.3334 23.5003 16.5084 23.5503 17.7834H21.917C21.8753 16.8584 21.3837 16.2251 20.067 16.2251C18.817 16.2251 18.067 16.7917 18.067 17.5917C18.067 18.2917 18.6087 18.7501 20.292 19.1834C21.9753 19.6167 23.7753 20.3417 23.7753 22.4417C23.767 23.9667 22.6253 24.8001 21.1753 25.0751Z" fill="#7E7E7E"/>
</svg>
