<svg width="40" height="40" viewBox="0 0 40 40" fill="none" xmlns="http://www.w3.org/2000/svg">
<rect width="40" height="40" rx="20" fill="#F5F5F5"/>
<path d="M24.3413 17.5L20.6913 12.0333C20.533 11.8 20.2663 11.6833 19.9997 11.6833C19.733 11.6833 19.4663 11.8 19.308 12.0417L15.658 17.5H11.6663C11.208 17.5 10.833 17.875 10.833 18.3333C10.833 18.4083 10.8413 18.4833 10.8663 18.5584L12.983 26.2834C13.1747 26.9834 13.8163 27.5 14.583 27.5H25.4163C26.183 27.5 26.8247 26.9834 27.0247 26.2834L29.1413 18.5584L29.1663 18.3333C29.1663 17.875 28.7913 17.5 28.333 17.5H24.3413ZM17.4997 17.5L19.9997 13.8333L22.4997 17.5H17.4997ZM19.9997 24.1667C19.083 24.1667 18.333 23.4167 18.333 22.5C18.333 21.5833 19.083 20.8333 19.9997 20.8333C20.9163 20.8333 21.6663 21.5833 21.6663 22.5C21.6663 23.4167 20.9163 24.1667 19.9997 24.1667Z" fill="#7E7E7E"/>
</svg>
