<svg width="24" height="24" viewBox="0 0 24 24" fill="none" xmlns="http://www.w3.org/2000/svg">
<path fill-rule="evenodd" clip-rule="evenodd" d="M0 0V24H23.5489V0H0Z" fill="white" fill-opacity="0.01"/>
<ellipse cx="11.7549" cy="12" rx="9.79592" ry="10" fill="black" fill-opacity="0.12"/>
<path fill-rule="evenodd" clip-rule="evenodd" d="M10.7832 13.4234C10.737 13.7142 10.714 14.0563 10.714 14.4496H12.5616C12.5671 14.0341 12.62 13.6616 12.7203 13.332C12.8207 13.0024 13.0201 12.6991 13.3186 12.4222C13.5791 12.1729 13.8314 11.9209 14.0756 11.6661C14.3198 11.4112 14.5368 11.1454 14.7267 10.8684C14.9166 10.5914 15.0686 10.2951 15.1825 9.97932C15.2965 9.66357 15.3535 9.3229 15.3535 8.9573C15.3535 8.45322 15.2761 8.00176 15.1215 7.60293C14.9668 7.20409 14.7403 6.86619 14.4418 6.58922C14.1434 6.31225 13.7798 6.10176 13.3512 5.95773C12.9225 5.81371 12.4341 5.7417 11.886 5.7417C11.3868 5.7417 10.9242 5.80956 10.4983 5.94527C10.0723 6.08099 9.7006 6.28317 9.38316 6.55183C9.06572 6.82049 8.81611 7.15285 8.63433 7.54892C8.45255 7.94498 8.35894 8.40336 8.35352 8.92407H10.3314C10.3314 8.65817 10.3762 8.43106 10.4657 8.24272C10.5552 8.05438 10.6733 7.89928 10.8198 7.77742C10.9663 7.65555 11.1318 7.56692 11.3163 7.51153C11.5008 7.45613 11.6907 7.42844 11.886 7.42844C12.3744 7.42844 12.7448 7.56553 12.9971 7.83973C13.2494 8.11393 13.3756 8.51138 13.3756 9.03208C13.3756 9.27028 13.3403 9.48631 13.2698 9.68019C13.1992 9.87407 13.1029 10.0569 12.9808 10.2286C12.8587 10.4003 12.7176 10.5679 12.5576 10.7313C12.3975 10.8947 12.2252 11.0678 12.0407 11.2506C11.7965 11.4943 11.5903 11.7242 11.4221 11.9403C11.2539 12.1563 11.1169 12.3848 11.0111 12.6257C10.9052 12.8667 10.8293 13.1326 10.7832 13.4234ZM10.6488 16.6016C10.6 16.7346 10.5756 16.8786 10.5756 17.0337C10.5756 17.3384 10.6719 17.5932 10.8645 17.7981C11.0572 18.0031 11.3326 18.1056 11.6907 18.1056C12.0488 18.1056 12.3256 18.0031 12.5209 17.7981C12.7163 17.5932 12.814 17.3384 12.814 17.0337C12.814 16.8786 12.7882 16.7346 12.7366 16.6016C12.6851 16.4687 12.6118 16.3524 12.5169 16.2526C12.4219 16.1529 12.3052 16.0754 12.1669 16.02C12.0285 15.9646 11.8698 15.9369 11.6907 15.9369C11.5116 15.9369 11.3529 15.9646 11.2145 16.02C11.0762 16.0754 10.9595 16.1529 10.8645 16.2526C10.7696 16.3524 10.6977 16.4687 10.6488 16.6016Z" fill="white"/>
</svg>
