<svg width="88" height="88" viewBox="0 0 88 88" fill="none" xmlns="http://www.w3.org/2000/svg">
<mask id="mask0_2069_12307" style="mask-type:alpha" maskUnits="userSpaceOnUse" x="0" y="12" width="107" height="99">
<path fill-rule="evenodd" clip-rule="evenodd" d="M36.8453 12L0 55.2946L1.29044 59.7855L92.4294 33.4015L91.139 28.9069L36.8453 12ZM40.2779 23.7006C44.1268 22.5874 48.1461 24.8165 49.2554 28.6794C50.3646 32.5424 48.1438 36.5764 44.295 37.6899C40.4462 38.8034 36.4268 36.5746 35.3172 32.7117C34.7843 30.8565 35.0076 28.8648 35.938 27.1749C36.8683 25.485 38.4294 24.2352 40.2779 23.7006ZM44.4344 35.5369L44.0688 34.2747H44.0359C45.1765 33.651 45.6993 32.5429 45.3702 31.3982C45.0412 30.2535 44.2187 29.7104 42.6212 29.582C41.5355 29.4756 41.1626 29.3876 41.0675 29.0133C40.9725 28.6391 41.243 28.3199 41.7987 28.1584C42.3004 28.0139 42.8292 27.9913 43.3414 28.0924L43.7069 28.1474V26.478L43.5095 26.4413C42.9742 26.3449 42.4252 26.3549 41.8937 26.4707L41.572 25.37L40.139 25.7846L40.5046 26.988C39.4079 27.6081 38.9217 28.6428 39.2361 29.7435C39.6272 31.101 40.9067 31.3689 42.1058 31.4496C43.2061 31.5266 43.4364 31.8055 43.5205 32.0953C43.6411 32.5246 43.3194 32.9135 42.7016 33.0933C42.0906 33.255 41.4483 33.255 40.8372 33.0933L40.5338 33.0162V34.7113L40.702 34.7664C41.3465 34.9293 42.0202 34.938 42.6687 34.7921L43.0014 35.9515L44.4344 35.5369ZM28.7919 94.979L20.9798 67.7914C20.0813 64.6718 21.8727 61.4119 24.9809 60.5102C28.0891 59.6085 31.3371 61.4064 32.2355 64.5259L40.0476 91.7135L52.6706 88.0445L44.8621 60.8569C44.2822 58.8382 44.8194 56.6624 46.2713 55.1491C47.7232 53.6357 49.8692 53.0147 51.901 53.52C53.9328 54.0253 55.5416 55.5801 56.1215 57.5988L63.9336 84.7827L76.297 81.2017L68.4849 54.0178C67.907 51.9965 68.4474 49.8193 69.9025 48.3064C71.3576 46.7934 73.5065 46.1745 75.5395 46.6828C77.5726 47.1911 79.181 48.7494 79.7589 50.7707L87.5747 77.9546L96.6188 75.3349L86.383 39.7746L9.78982 61.9576L20.0256 97.5179L28.7919 94.979ZM103.778 76.8264C104.327 76.6681 104.901 76.9864 105.06 77.5373L103.778 76.8264ZM105.06 77.5373L106.681 83.1567L105.06 77.5373ZM106.681 83.1567C106.839 83.7077 106.523 84.2827 105.974 84.4411L106.681 83.1567ZM105.974 84.4411L16.8705 110.143L105.974 84.4411ZM16.8705 110.143C16.3216 110.301 15.7477 109.983 15.5888 109.432L16.8705 110.143ZM15.5888 109.432L13.9689 103.816L15.5888 109.432ZM13.9689 103.816C13.8096 103.264 14.1261 102.687 14.6759 102.528L13.9689 103.816ZM14.6759 102.528C14.6762 102.527 14.6765 102.527 14.6768 102.527L14.6759 102.528Z" fill="white"/>
</mask>
<g mask="url(#mask0_2069_12307)">
<rect width="88" height="88" fill="#17C19D"/>
</g>
</svg>
