<svg width="88" height="88" viewBox="0 0 88 88" fill="none" xmlns="http://www.w3.org/2000/svg">
<mask id="mask0_2069_12339" style="mask-type:alpha" maskUnits="userSpaceOnUse" x="3" y="12" width="112" height="88">
<path fill-rule="evenodd" clip-rule="evenodd" d="M81.8947 13.1021L13.0881 40.2053C4.92185 43.4319 0.900102 52.6852 4.09886 60.8877L15.3436 89.6309C18.5571 97.8265 27.7743 101.864 35.9469 98.6567L104.753 71.5536C112.92 68.3268 116.943 59.0747 113.746 50.8712L102.498 22.1206C99.2816 13.9279 90.0652 9.89368 81.8947 13.1021ZM14.6308 44.1789L83.4483 17.0757C88.8478 14.9586 94.9767 17.1477 97.8297 22.2123L7.58269 57.769C6.23759 52.107 9.24655 46.3141 14.6417 44.1789H14.6308ZM34.3932 94.6978L103.189 67.5947H103.2C109.177 65.2271 112.12 58.4521 109.78 52.4452L103.269 35.7951L12.7847 71.4361L19.3027 88.0936C21.66 94.0927 28.4092 97.0464 34.3932 94.6978Z" fill="white"/>
</mask>
<g mask="url(#mask0_2069_12339)">
<rect width="88" height="88" fill="#E24493"/>
</g>
</svg>
