<svg width="88" height="88" viewBox="0 0 88 88" fill="none" xmlns="http://www.w3.org/2000/svg">
<mask id="mask0_1424_10518" style="mask-type:alpha" maskUnits="userSpaceOnUse" x="0" y="13" width="98" height="100">
<path fill-rule="evenodd" clip-rule="evenodd" d="M44.1202 20.4545L5.586 45.0921L30.7734 14.4006C31.4185 13.6137 32.3488 13.1164 33.3593 13.018C34.3699 12.9196 35.378 13.2282 36.1618 13.8759L44.1202 20.4545ZM60.3842 27.0551L12.9448 44.9417L47.2275 23.0265L50.6236 20.8545L51.3547 20.3885C53.0963 19.2656 55.4123 19.741 56.575 21.4598L60.3842 27.0551ZM65.5606 69.2307C67.0551 73.2022 71.4689 75.2121 75.4308 73.7253L91.7789 67.576L96.8273 81.0414C97.5679 83.0281 96.5674 85.2417 94.5901 85.9909L24.6977 112.338C22.7202 113.085 20.514 112.083 19.7663 110.1L0.245099 57.9374C-0.497477 55.9516 0.50405 53.7376 2.48236 52.9916L72.3893 26.6295C74.3688 25.8862 76.5743 26.8904 77.3208 28.875L82.3692 42.366L66.0139 48.5337C62.0583 50.0352 60.0576 54.4646 61.5393 58.4401L65.5606 69.2307ZM87.0594 44.7105L67.3445 52.1403C65.3657 52.8879 64.3644 55.1031 65.1073 57.0899L69.1467 67.8805C69.4992 68.8389 70.2179 69.6166 71.1435 70.0416C72.0691 70.4665 73.1253 70.5034 74.0782 70.1443L93.7895 62.7145C94.7404 62.3563 95.5105 61.6334 95.9301 60.7051C96.3497 59.7767 96.3845 58.7191 96.0267 57.765L91.9872 46.956C91.6311 46.0019 90.9116 45.229 89.9872 44.8078C89.0628 44.3866 88.0095 44.3516 87.0594 44.7105ZM71.2781 60.9202C72.1151 63.154 74.5977 64.2841 76.8236 63.4446H76.8346C79.0564 62.5985 80.1766 60.107 79.3387 57.875C78.5004 55.6417 76.0172 54.5129 73.7918 55.3537C71.5664 56.1944 70.441 58.6864 71.2781 60.9202Z" fill="white"/>
</mask>
<g mask="url(#mask0_1424_10518)">
<rect width="88" height="88" fill="#1AA333"/>
</g>
</svg>
