<svg width="88" height="88" viewBox="0 0 88 88" fill="none" xmlns="http://www.w3.org/2000/svg">
<mask id="mask0_2069_12366" style="mask-type:alpha" maskUnits="userSpaceOnUse" x="4" y="13" width="91" height="88">
<path fill-rule="evenodd" clip-rule="evenodd" d="M5.46605 67.0569C5.54728 67.3946 5.62916 67.7351 5.56244 68.0896C5.86306 69.3918 6.1638 70.6944 6.46648 71.9964C6.68211 72.2868 6.75771 72.6285 6.83267 72.9672C6.8655 73.1156 6.89821 73.2634 6.94251 73.4061C7.68045 75.7682 8.6958 77.9976 9.86302 80.1716C11.1642 82.594 12.739 84.8281 14.523 86.9143C16.2469 88.9261 18.165 90.7401 20.2632 92.3598C23.5455 94.8959 27.1347 96.8833 31.0354 98.2883C33.814 99.2885 36.6722 99.9616 39.6138 100.325C42.2742 100.651 44.9332 100.673 47.5983 100.49C48.8562 100.405 50.1102 100.226 51.3477 99.9485C51.3692 99.9436 51.3908 99.9375 51.4125 99.9314C51.5118 99.9036 51.6129 99.8752 51.7122 99.9497L55.9889 98.9624C56.1911 98.8821 56.3925 98.8 56.5939 98.7179C57.0092 98.5485 57.4243 98.3792 57.8451 98.227C60.404 97.3033 62.8385 96.1216 65.1531 94.689C67.6382 93.1485 69.9137 91.3526 71.9993 89.3028C74.0071 87.3313 75.764 85.1608 77.3214 82.8251C78.1218 81.6231 78.8045 80.3551 79.4729 79.0745C80.746 76.6359 81.7043 74.0794 82.4265 71.4323C83.207 68.5665 83.6271 65.6417 83.7429 62.6703C83.8367 60.3329 83.7292 57.9994 83.3739 55.6951C83.1354 54.1685 82.8401 52.6459 82.4342 51.1391C81.8569 49.0134 81.1524 46.9472 80.2511 44.9423C79.0252 42.2056 77.499 39.6472 75.6726 37.2654C75.4844 37.0189 75.3847 36.9935 75.1531 37.2111C73.52 38.7541 71.8805 40.2889 70.2287 41.811C69.9841 42.0352 69.9792 42.1832 70.1684 42.4431C71.0518 43.6584 71.8504 44.9267 72.5531 46.2586C73.3716 47.8075 74.074 49.4078 74.6191 51.0723L74.6682 51.2223L74.715 51.3648C75.0085 52.2588 75.3043 53.1594 75.4632 54.0791C75.516 54.3886 75.5811 54.6959 75.6462 55.0036L75.6463 55.0037L75.6463 55.0039L75.6463 55.0041C75.7544 55.5146 75.8626 56.0259 75.9154 56.5491C75.9495 56.8907 75.9899 57.2318 76.0303 57.5729L76.0303 57.5733L76.0304 57.5737L76.0304 57.5738C76.1084 58.2324 76.1865 58.8915 76.2192 59.5559C76.3115 61.4212 76.2395 63.2742 76.0177 65.1302C75.72 67.5775 75.1416 69.9549 74.2762 72.2576C73.3325 74.7705 72.1442 77.1589 70.5779 79.3542C69.787 80.4636 68.9693 81.5476 68.0567 82.5579C65.9179 84.9163 63.4909 86.9215 60.7608 88.5732C58.0071 90.2376 55.0486 91.378 51.9647 92.2249C51.1765 92.443 50.3681 92.5597 49.559 92.6765L49.558 92.6766C49.3324 92.7092 49.1068 92.7417 48.8815 92.7765C47.3187 93.0153 45.7462 93.116 44.1665 93.1072C41.1436 93.0884 38.1835 92.631 35.2836 91.7721C31.3152 90.5959 27.724 88.6805 24.4905 86.125C22.2601 84.3639 20.316 82.3122 18.6283 80.0105C16.2945 76.8239 14.6573 73.3118 13.5648 69.5363C12.9726 67.4932 12.6697 65.3859 12.534 63.2701C12.2988 59.5164 12.6946 55.8135 13.7617 52.2015C14.8249 48.5984 16.4861 45.2796 18.7078 42.252C20.637 39.621 22.9334 37.3506 25.5665 35.4088C28.9174 32.9355 32.6473 31.2822 36.6379 30.1821C37.4569 29.9563 38.2967 29.8333 39.1373 29.7102C39.3616 29.6773 39.5859 29.6445 39.8099 29.6097C41.4356 29.357 43.0689 29.2467 44.7102 29.2735C47.5542 29.3207 50.3495 29.7082 53.0897 30.4991C55.7962 31.2809 58.3502 32.4002 60.7726 33.8253C62.3311 34.7423 63.7825 35.8145 65.1475 37.0058C65.155 37.0123 65.1624 37.0188 65.1699 37.0254C65.1756 37.0305 65.1813 37.0355 65.187 37.0406C65.3417 37.1781 65.4979 37.3168 65.7473 37.0801C67.402 35.512 69.0694 33.9611 70.7404 32.409C70.949 32.213 70.9569 32.0843 70.7279 31.8812C69.2745 30.5853 67.733 29.3989 66.1189 28.3141C64.5532 27.2611 62.8961 26.3584 61.1895 25.5486C57.8085 23.9449 54.2742 22.8349 50.5783 22.2545C47.8691 21.8309 45.153 21.6871 42.4095 21.8205C40.3356 21.9227 38.298 22.2306 36.2668 22.6103C35.3634 22.7795 34.4786 23.03 33.5948 23.2903C33.3895 23.3508 33.1836 23.4102 32.9777 23.4697C32.1638 23.7045 31.3493 23.9396 30.566 24.247C27.9032 25.2885 25.3408 26.5301 22.9347 28.1004C20.4546 29.7181 18.1759 31.5734 16.1184 33.69C13.2286 36.6636 10.8736 40.0224 9.03482 43.7399C7.86078 46.1169 6.93155 48.5859 6.26444 51.1515C5.57495 53.8076 5.13905 56.5052 5.03173 59.254C4.93509 61.7186 5.00028 64.1695 5.37222 66.6136C5.39501 66.7615 5.43047 66.9089 5.46605 67.0569ZM94.0165 21.782L94.0194 21.7794L94.0207 21.7782C94.3399 21.4858 94.6592 21.1934 94.9779 20.9002L94.9693 20.863L94.9559 20.8064C94.4327 20.7909 93.9092 20.7747 93.3856 20.7585C91.9847 20.7151 90.5829 20.6717 89.1827 20.6404C88.8308 20.6312 88.7603 20.4455 88.7495 20.1721C88.7269 19.7043 88.7058 19.2364 88.6847 18.7684L88.6847 18.7669L88.6846 18.7652C88.6547 18.1017 88.6249 17.4381 88.5907 16.7743C88.555 16.1142 88.5113 15.4541 88.466 14.7682L88.4659 14.7676L88.4658 14.7666L88.4654 14.7605C88.4436 14.4302 88.4213 14.094 88.3994 13.7488C87.8214 14.2872 87.2568 14.8142 86.6992 15.3346L86.6786 15.3538L86.6765 15.3558L86.6751 15.3571L86.6736 15.3585C85.9866 15.9997 85.3103 16.631 84.633 17.2613L84.1272 17.7323C82.1065 19.6144 80.087 21.4953 78.065 23.3748C77.9096 23.5188 77.814 23.6527 77.8091 23.8972C77.7946 24.7033 77.7629 25.509 77.7312 26.3144L77.7311 26.317C77.7157 26.7088 77.7003 27.1007 77.6868 27.4925C77.6788 27.7702 77.618 27.9895 77.3941 28.199C75.7211 29.7556 74.0527 31.3179 72.3843 32.8801C71.1415 34.0439 69.8987 35.2076 68.6541 36.369C67.3514 37.584 66.045 38.7947 64.7387 40.0054L64.7377 40.0063C63.5268 41.1285 62.316 42.2506 61.1084 43.376C59.9559 44.45 58.808 45.528 57.6601 46.606C56.7552 47.4558 55.8504 48.3056 54.9433 49.1533C53.4583 50.541 51.9721 51.9269 50.4858 53.313L50.4772 53.3209C49.3749 54.3489 48.2725 55.3769 47.1706 56.4056C46.8918 56.6659 46.6119 56.925 46.3321 57.1842C45.5328 57.9243 44.7337 58.6642 43.9598 59.4299C43.2323 60.1513 43.3369 61.337 44.1185 61.9941C44.8793 62.6358 45.8974 62.5288 46.7492 61.7197C49.0311 59.5551 51.3316 57.409 53.632 55.2631L53.6328 55.2624L53.671 55.2268C54.7125 54.256 55.7561 53.2883 56.7995 52.3208L56.8006 52.3198L56.8017 52.3188C58.0069 51.2012 59.2119 50.0838 60.4135 48.9621C62.4171 47.0919 64.4174 45.2188 66.4174 43.346L66.4199 43.3437L66.4226 43.3411L66.4253 43.3386C67.8872 41.9697 69.3489 40.6009 70.8116 39.2336C72.3324 37.8137 73.8542 36.3952 75.376 34.9766L75.3793 34.9736L75.3826 34.9706C76.8443 33.6081 78.3059 32.2456 79.7667 30.882C79.9808 30.6811 80.1897 30.5484 80.5126 30.5712C80.8611 30.5971 81.211 30.6081 81.5609 30.6191L81.561 30.6192L81.5611 30.6192L81.5611 30.6192C82.0318 30.634 82.5023 30.6488 82.9689 30.6998C83.9407 30.8063 84.7638 30.6541 85.3982 29.8249C85.5931 29.5707 85.8418 29.3578 86.0906 29.1448C86.2052 29.0467 86.3198 28.9486 86.4293 28.8464C86.9398 28.3692 87.4501 27.8918 87.9604 27.4145L87.9684 27.407L87.988 27.3887L87.9912 27.3857L87.9927 27.3842C89.3777 26.0887 90.7626 24.7932 92.1511 23.5001C92.7694 22.924 93.3929 22.353 94.0165 21.782ZM21.1762 66.9013C20.1585 62.6284 20.2453 58.7297 21.3011 54.8594C22.1659 51.6895 23.6402 48.8234 25.6894 46.2464C28.0267 43.3085 30.8997 41.0648 34.2923 39.4774C36.1628 38.6008 38.119 37.947 40.1555 37.6096C45.3264 36.7536 50.2934 37.4276 55.0126 39.7471C56.5363 40.4973 57.9584 41.4155 59.2843 42.4806C59.569 42.709 59.5919 42.8444 59.2956 43.1165C57.4279 44.8252 55.5795 46.554 53.7398 48.292C53.5083 48.5098 53.3869 48.5297 53.1138 48.3461C50.0662 46.2982 46.6939 45.3753 43.0423 45.6768C40.0674 45.9219 37.3509 46.9607 34.9778 48.8119C31.2614 51.7106 29.2412 55.5247 28.8584 60.2111C28.7031 62.0972 28.9617 63.9517 29.515 65.7442C30.4844 68.8822 32.2628 71.4896 34.8918 73.4818C38.1991 75.9949 41.9281 77.0909 46.069 76.6401C50.2573 76.1837 53.7127 74.293 56.3766 71.0414C58.9627 67.8846 60.1099 64.2342 59.8687 60.1498C59.7331 57.8534 59.0962 55.7103 57.9806 53.7053C57.868 53.5026 57.833 53.3956 58.0458 53.2004C59.9629 51.4308 61.8634 49.6415 63.7618 47.851C63.9772 47.6477 64.0755 47.6439 64.2534 47.9118C65.2452 49.3861 66.0455 50.9509 66.6753 52.6124C67.1813 53.9479 67.6156 55.3031 67.8674 56.7075C68.3905 59.6047 68.4439 62.5106 67.9161 65.4182C67.4734 67.8508 66.6854 70.1645 65.5444 72.3527C64.4847 74.3881 63.1249 76.2078 61.5306 77.8579C59.4613 80.0001 57.0788 81.7065 54.3752 82.9356C52.7085 83.6964 50.9743 84.3005 49.1632 84.6444C46.9331 85.07 44.6898 85.2264 42.4239 85.0436C39.6848 84.8237 37.0623 84.1523 34.5645 83.0134C31.5908 81.6601 28.9918 79.7863 26.7689 77.3768C24.6808 75.1125 23.1237 72.537 22.0089 69.6841C21.612 68.6653 21.2907 67.621 21.1762 66.9013ZM47.1005 53.7891C45.58 53.2127 44.0302 53.0615 42.3325 53.5126C41.4353 53.6404 40.545 54.0849 39.7179 54.6533C38.0217 55.8187 36.9646 57.4397 36.5351 59.4338C36.22 60.9078 36.3616 62.3656 36.8746 63.812C38.1188 67.3048 41.846 69.5488 45.7178 68.7839C47.9788 68.337 49.7438 67.0974 50.9394 65.0911C51.9615 63.3679 52.2538 61.5268 51.8927 59.5658C51.8235 59.1839 51.729 59.1003 51.4131 59.4019C50.8587 59.9295 50.2986 60.4507 49.7386 60.9719C49.0712 61.5928 48.404 62.2137 47.7465 62.8454C46.4292 64.1111 44.4795 64.1856 43.203 62.988C41.8331 61.7026 41.7063 59.7229 43.0235 58.3707C44.0365 57.3309 45.1058 56.3458 46.1744 55.3612C46.524 55.0391 46.8736 54.7171 47.221 54.3932C47.6299 54.0139 47.6455 53.9953 47.1005 53.7891Z" fill="white"/>
</mask>
<g mask="url(#mask0_2069_12366)">
<rect width="88" height="88" fill="#E24242"/>
</g>
</svg>
